<svg width="16" height="15" viewBox="0 0 16 15" fill="none" xmlns="http://www.w3.org/2000/svg">
<path d="M15.4812 3.87481L13.8234 10.086C13.7323 10.4253 13.5373 10.7243 13.2681 10.9379C12.999 11.1514 12.6702 11.2678 12.3318 11.2692H5.94134C5.60193 11.2691 5.27187 11.1533 5.00152 10.9397C4.73117 10.7261 4.53535 10.4262 4.44394 10.086L2.17585 1.57692H1.01724C0.880058 1.57692 0.748496 1.52019 0.651495 1.41921C0.554495 1.31823 0.5 1.18127 0.5 1.03846C0.5 0.895653 0.554495 0.758693 0.651495 0.657712C0.748496 0.556731 0.880058 0.5 1.01724 0.5H2.56895C2.68203 0.499977 2.79201 0.538535 2.88204 0.60977C2.97207 0.681004 3.03719 0.780991 3.06744 0.894423L3.68037 3.19231H14.9827C15.0624 3.19229 15.1411 3.21147 15.2125 3.24834C15.2839 3.28521 15.3462 3.33878 15.3945 3.40486C15.4428 3.47094 15.4757 3.54774 15.4907 3.62926C15.5058 3.71078 15.5025 3.79482 15.4812 3.87481ZM5.67238 12.3462C5.46778 12.3462 5.26777 12.4093 5.09766 12.5276C4.92754 12.646 4.79495 12.8142 4.71665 13.011C4.63835 13.2077 4.61787 13.4243 4.65778 13.6332C4.6977 13.8421 4.79622 14.034 4.9409 14.1846C5.08557 14.3352 5.26989 14.4378 5.47056 14.4793C5.67123 14.5209 5.87923 14.4995 6.06826 14.418C6.25728 14.3365 6.41885 14.1985 6.53252 14.0214C6.64618 13.8443 6.70686 13.6361 6.70686 13.4231C6.70686 13.1375 6.59787 12.8635 6.40386 12.6616C6.20986 12.4596 5.94674 12.3462 5.67238 12.3462ZM12.3965 12.3462C12.1919 12.3462 11.9919 12.4093 11.8217 12.5276C11.6516 12.646 11.519 12.8142 11.4407 13.011C11.3624 13.2077 11.342 13.4243 11.3819 13.6332C11.4218 13.8421 11.5203 14.034 11.665 14.1846C11.8097 14.3352 11.994 14.4378 12.1947 14.4793C12.3953 14.5209 12.6033 14.4995 12.7923 14.418C12.9814 14.3365 13.1429 14.1985 13.2566 14.0214C13.3703 13.8443 13.4309 13.6361 13.4309 13.4231C13.4309 13.1375 13.322 12.8635 13.128 12.6616C12.934 12.4596 12.6708 12.3462 12.3965 12.3462Z" fill="url(#paint0_linear_2179_2859)"/>
<defs>
<linearGradient id="paint0_linear_2179_2859" x1="0.5" y1="7.5" x2="15.5" y2="7.5" gradientUnits="userSpaceOnUse">
<stop stop-color="#6D3378"/>
<stop offset="1" stop-color="#CA5062"/>
</linearGradient>
</defs>
</svg>
