<svg width="19" height="15" viewBox="0 0 19 15" fill="none" xmlns="http://www.w3.org/2000/svg">
<path d="M6.52723 9.36429C6.52723 11.0464 7.33723 12.5786 8.64223 13.6286H8.58823C7.32823 13.6286 6.14923 13.3714 5.09623 12.9214L2.51323 14.8393L3.08923 11.6786C1.64023 10.4357 0.740234 8.72143 0.740234 6.81429C0.740234 3.05357 4.25023 0 8.58823 0C11.8192 0 14.5912 1.69286 15.7882 4.11429C14.9077 3.75548 13.9829 3.57441 13.0522 3.57857C9.45223 3.57857 6.52723 6.17143 6.52723 9.36429ZM18.7402 9.36429C18.7402 10.7786 18.0022 12.0964 16.7152 13.0071L16.9852 15L15.1852 13.7786C14.5372 13.9929 13.8442 14.1 13.1422 14.1C10.0552 14.1 7.54423 11.9786 7.54423 9.36429C7.54423 6.75 10.0552 4.61786 13.1422 4.61786C16.2292 4.61786 18.7402 6.76071 18.7402 9.36429Z" fill="url(#paint0_linear_2179_2841)"/>
<defs>
<linearGradient id="paint0_linear_2179_2841" x1="0.740234" y1="7.5" x2="18.7402" y2="7.5" gradientUnits="userSpaceOnUse">
<stop stop-color="#6D3378"/>
<stop offset="1" stop-color="#CA5062"/>
</linearGradient>
</defs>
</svg>
