<svg width="15" height="19" viewBox="0 0 15 19" fill="none" xmlns="http://www.w3.org/2000/svg">
<path d="M7.48004 0C3.84444 0 0.886719 2.95815 0.886719 6.59385C0.886719 10.0935 6.86895 18.27 7.12367 18.6162L7.36139 18.9397C7.38919 18.9778 7.43346 19 7.48004 19C7.52733 19 7.57131 18.9778 7.5994 18.9397L7.83698 18.6162C8.09184 18.27 14.0739 10.0935 14.0739 6.59385C14.0739 2.95815 11.1157 0 7.48004 0ZM7.48004 4.23194C8.78268 4.23194 9.84194 5.29125 9.84194 6.59385C9.84194 7.89577 8.78263 8.95575 7.48004 8.95575C6.17816 8.95575 5.11813 7.89577 5.11813 6.59385C5.11813 5.29125 6.17811 4.23194 7.48004 4.23194Z" fill="url(#paint0_linear_2179_2831)"/>
<defs>
<linearGradient id="paint0_linear_2179_2831" x1="0.886719" y1="9.5" x2="14.0739" y2="9.5" gradientUnits="userSpaceOnUse">
<stop stop-color="#6D3378"/>
<stop offset="1" stop-color="#CA5062"/>
</linearGradient>
</defs>
</svg>
