<svg width="13" height="13" viewBox="0 0 13 13" fill="none" xmlns="http://www.w3.org/2000/svg">
<path fill-rule="evenodd" clip-rule="evenodd" d="M5.51378 11.0279C6.75246 11.0301 7.95543 10.6131 8.92705 9.84471L12.0828 13L13 12.0827L9.84426 8.9268C10.6165 7.94674 11.0335 6.73372 11.0272 5.48595C11.0209 4.23819 10.5915 3.02946 9.80934 2.05731C9.02717 1.08515 7.9384 0.407056 6.72098 0.133825C5.50355 -0.139406 4.22945 0.00838832 3.10689 0.553056C1.98433 1.09772 1.07969 2.00706 0.540793 3.13245C0.00189992 4.25785 -0.139376 5.53276 0.140053 6.74885C0.419482 7.96494 1.10309 9.05029 2.07917 9.82754C3.05525 10.6048 4.26608 11.028 5.51378 11.0279ZM5.51378 9.73054C6.63202 9.73054 7.70445 9.2863 8.49516 8.49554C9.28587 7.70478 9.73009 6.63228 9.73009 5.51397C9.73009 4.39567 9.28587 3.32317 8.49516 2.53241C7.70445 1.74165 6.63202 1.29741 5.51378 1.29741C4.39555 1.29741 3.32311 1.74165 2.5324 2.53241C1.74169 3.32317 1.29747 4.39567 1.29747 5.51397C1.29747 6.63228 1.74169 7.70478 2.5324 8.49554C3.32311 9.2863 4.39555 9.73054 5.51378 9.73054Z" fill="white"/>
</svg>
